<?xml version="1.0" standalone="no"?><!DOCTYPE svg PUBLIC "-//W3C//DTD SVG 1.1//EN" "http://www.w3.org/Graphics/SVG/1.1/DTD/svg11.dtd"><svg t="1692951405436" class="icon" viewBox="0 0 1024 1024" version="1.1" xmlns="http://www.w3.org/2000/svg" p-id="1304" xmlns:xlink="http://www.w3.org/1999/xlink" width="128" height="128"><path d="M669.399293 390.784452l-227.957597-303.943463C372.69258 0 246.04947-18.091873 159.208481 47.038869 72.367491 112.169611 54.275618 238.812721 119.40636 329.272085l227.957598 303.943463c65.130742 86.840989 191.773852 104.932862 282.233215 39.80212 90.459364-68.749117 108.551237-195.392226 39.80212-282.233216" fill="#FFD72D" p-id="1305"></path><path d="M861.173145 47.038869C774.332155-18.091873 647.689046 0 578.939929 86.840989l-227.957597 303.943463c-65.130742 86.840989-47.038869 213.484099 39.80212 282.233216 86.840989 65.130742 213.484099 47.038869 282.233216-39.80212l227.957597-303.943463c65.130742-90.459364 47.038869-217.102473-39.80212-282.233216" fill="#7FD0DE" p-id="1306"></path><path d="M629.597173 350.982332c-86.840989-68.749117-213.484099-47.038869-282.233215 39.80212l-227.957598 303.943463c-65.130742 90.459364-47.038869 217.102473 39.802121 282.233216 86.840989 65.130742 213.484099 47.038869 282.233215-39.80212l227.957597-303.943463c65.130742-86.840989 50.657244-217.102473-39.80212-282.233216" fill="#6BC4EE" p-id="1307"></path><path d="M669.399293 390.784452l-159.20848-213.484099-159.208481 213.484099c-65.130742 86.840989-47.038869 213.484099 39.80212 282.233216 14.473498 10.855124 28.946996 18.091873 43.420495 25.328622 3.618375 0 3.618375 0 7.236749 3.618374h7.236749c21.710247 7.236749 43.420495 10.855124 65.130742 10.855124h54.275619c21.710247-7.236749 43.420495-18.091873 61.512367-32.565371 90.459364-75.985866 108.551237-199.010601 39.80212-289.469965" fill="#6FAA43" p-id="1308"></path><path d="M629.597173 350.982332c-86.840989-68.749117-213.484099-47.038869-282.233215 39.80212l-90.459364 119.406361 90.459364 119.40636c65.130742 86.840989 191.773852 104.932862 282.233215 39.80212 10.855124-10.855124 21.710247-18.091873 32.565371-32.565371l7.236749-7.236749c68.749117-83.222615 50.657244-213.484099-39.80212-278.614841" fill="#649A41" p-id="1309"></path><path d="M709.201413 510.190813c0 112.169611-90.459364 199.010601-199.0106 199.0106-112.169611 0-202.628975-90.459364-202.628976-199.0106s90.459364-199.010601 202.628976-199.010601c108.551237 0 199.010601 90.459364 199.0106 199.010601" fill="#328B42" p-id="1310"></path></svg>